# xmcd
#
# Track frame offsets:
#	150
#	16500
#	33117
#	43517
#	61635
#	75737
#	92310
#	109980
#	126410
#	144802
#	162925
#	173955
#
# Disc length: 2477 seconds
#
# Revision: 0
# Processed by: cddbd v1.4PL0 Copyright (c) Steve Scherf et al.
# Submitted via: dBpowerAMP V4.0
#
DISCID=8409ab0c
DTITLE=Hadacol - Better Than This
DYEAR=1998
DGENRE=Alt Country
TTITLE0=Better Than This
TTITLE1=Big Tornado
TTITLE2=Somebody Lied
TTITLE3=What You Wanted
TTITLE4=It'll Work Out Fine
TTITLE5=Poorer Than Dead
TTITLE6=Rebel Boys
TTITLE7=Messed Up
TTITLE8=Drive All Night
TTITLE9=Cheap Liquor
TTITLE10=Carry On
TTITLE11=Pappy
EXTD=The songs are listed out of order on the CD jacket. I have listed the proper order here.
EXTT0=
EXTT1=
EXTT2=
EXTT3=
EXTT4=
EXTT5=
EXTT6=
EXTT7=
EXTT8=
EXTT9=
EXTT10=
EXTT11=
PLAYORDER=
